<svg width="130" height="20" viewBox="0 0 130 20" fill="none" xmlns="http://www.w3.org/2000/svg">
<path d="M37.7747 16.6357C37.2714 16.1854 37.033 15.4437 37.033 14.3841V8.26486H41.5099V6.0132H37.033V1.37744H34.2781V6.0132H30.437V8.26486H34.2781V14.7019C34.2781 16.4238 34.7284 17.6953 35.6555 18.5165C36.5827 19.3377 37.8807 19.7351 39.6026 19.7351C41.3244 19.7351 41.033 19.6556 41.6158 19.4966V17.2185C41.086 17.298 40.6092 17.3245 40.1854 17.3245C39.0993 17.3245 38.2781 17.0861 37.7747 16.6357Z" fill="#B1C2BE"/>
<path d="M52.5832 6.19875C51.762 5.77491 50.7289 5.56299 49.5103 5.56299C48.2918 5.56299 47.4176 5.77491 46.5434 6.19875C45.6958 6.62259 45.0335 7.17888 44.5567 7.89412C44.0799 8.60935 43.815 9.40405 43.762 10.2782H46.5699C46.6229 9.48352 46.9143 8.84775 47.4441 8.37093C47.9739 7.89411 48.7156 7.68219 49.6692 7.68219C50.6229 7.68219 51.1262 7.86762 51.603 8.26497C52.0799 8.63584 52.2918 9.16563 52.2918 9.8014C52.2918 10.4372 52.1858 10.4901 51.9739 10.7021C51.762 10.914 51.3911 11.0464 50.8613 11.1259L48.2123 11.5233C46.7553 11.7352 45.5898 12.1855 44.7156 12.8742C43.8414 13.5365 43.3911 14.5431 43.3911 15.8411C43.3911 17.1392 43.603 17.404 44.0269 18.0398C44.4507 18.6756 45.007 19.1524 45.7222 19.4968C46.4375 19.8411 47.2322 20.0001 48.0798 20.0001C48.9275 20.0001 50.0666 19.7882 50.8083 19.3908C51.5501 18.9935 52.1063 18.4372 52.4772 17.6954C52.4772 17.8279 52.4507 17.9603 52.4242 18.0663C52.4242 18.1988 52.4242 18.3047 52.4242 18.4372V19.5233H55.0203V10.967C55.0203 9.82789 54.8083 8.84776 54.411 8.05305C54.0136 7.23186 53.4044 6.62259 52.5567 6.19875H52.5832ZM52.3447 14.3577C52.3447 15.0464 52.1858 15.6557 51.8679 16.1855C51.5501 16.7153 51.0997 17.1127 50.5434 17.404C49.9871 17.6954 49.3514 17.8279 48.6626 17.8279C47.9739 17.8279 47.3646 17.6425 46.9143 17.2716C46.4639 16.9007 46.2255 16.3974 46.2255 15.7352C46.2255 15.0729 46.464 14.5696 46.9673 14.2252C47.4706 13.8809 48.1593 13.616 49.0335 13.457L50.7289 13.1391C51.1792 13.0332 51.5236 12.9537 51.7885 12.8478C52.0269 12.7418 52.2123 12.6623 52.3447 12.5299V14.3047V14.3577Z" fill="#B1C2BE"/>
<path d="M63.5239 0H62.1464H60.7689H58.0934V2.25166H60.7689V17.2715H57.5371V19.5232H60.7689H63.5239H66.2788V17.2715H63.5239V0Z" fill="#B1C2BE"/>
<path d="M91.4438 6.70199V7.25828C91.4438 7.36424 91.4703 7.4702 91.4703 7.57616C91.4703 7.68212 91.4703 7.78808 91.4968 7.89404C91.1259 7.23179 90.5696 6.70198 89.8279 6.25165C89.0862 5.80132 88.212 5.5894 87.1789 5.5894C86.1458 5.5894 84.9272 5.8808 83.9736 6.49007C83.02 7.07285 82.2782 7.92053 81.7484 9.00662C81.2186 10.0927 80.9272 11.3642 80.9272 12.8212C80.9272 14.2782 81.1921 15.6291 81.7219 16.7152C82.2517 17.8013 82.9935 18.6225 83.9206 19.1788C84.8478 19.7351 85.9339 20 87.1524 20C88.371 20 89.0597 19.7881 89.8014 19.3377C90.5431 18.8874 91.0994 18.3311 91.4703 17.6954C91.4703 17.8808 91.4438 18.0662 91.4173 18.2781C91.4173 18.4636 91.4173 18.6755 91.4173 18.8874V19.5762H94.1988V0.0529785H91.4173V6.75497L91.4438 6.70199ZM91.0994 15.3907C90.7551 16.1589 90.2782 16.7417 89.6955 17.1656C89.1127 17.5894 88.4504 17.8013 87.7087 17.8013C86.967 17.8013 86.2782 17.5894 85.669 17.1656C85.0862 16.7417 84.6094 16.1589 84.2915 15.4172C83.9736 14.6755 83.8147 13.7748 83.8147 12.7682C83.8147 11.7616 83.9736 10.9139 84.2915 10.1722C84.6094 9.43047 85.0862 8.82119 85.669 8.42384C86.2518 8 86.9405 7.78808 87.7087 7.78808C88.8743 7.78808 89.8014 8.23841 90.5167 9.13907C91.2319 10.0397 91.6028 11.2583 91.6028 12.7682C91.6028 14.2781 91.4173 14.6225 91.0994 15.3907Z" fill="#B1C2BE"/>
<path d="M102.729 15.7351H98.9673V19.5232H102.729V15.7351Z" fill="#B1C2BE"/>
<path d="M116.344 6.19875C115.523 5.77491 114.49 5.56299 113.272 5.56299C112.053 5.56299 111.179 5.77491 110.305 6.19875C109.457 6.62259 108.795 7.17888 108.318 7.89412C107.841 8.60935 107.576 9.40405 107.523 10.2782H110.331C110.384 9.48352 110.676 8.84775 111.205 8.37093C111.735 7.89411 112.477 7.68219 113.431 7.68219C114.384 7.68219 114.887 7.86762 115.364 8.26497C115.841 8.63584 116.053 9.16563 116.053 9.8014C116.053 10.4372 115.947 10.4901 115.735 10.7021C115.523 10.914 115.152 11.0464 114.623 11.1259L111.974 11.5233C110.517 11.7352 109.351 12.1855 108.477 12.8742C107.603 13.5365 107.152 14.5431 107.152 15.8411C107.152 17.1392 107.364 17.404 107.788 18.0398C108.212 18.6756 108.768 19.1524 109.483 19.4968C110.199 19.8411 110.993 20.0001 111.841 20.0001C112.689 20.0001 113.828 19.7882 114.57 19.3908C115.311 18.9935 115.868 18.4372 116.238 17.6954C116.238 17.8279 116.212 17.9603 116.185 18.0663C116.185 18.1988 116.185 18.3047 116.185 18.4372V19.5233H118.781V10.967C118.781 9.82789 118.57 8.84776 118.172 8.05305C117.775 7.23186 117.166 6.62259 116.318 6.19875H116.344ZM116.106 14.3577C116.106 15.0464 115.947 15.6557 115.629 16.1855C115.311 16.7153 114.861 17.1127 114.305 17.404C113.748 17.6954 113.113 17.8279 112.424 17.8279C111.735 17.8279 111.126 17.6425 110.676 17.2716C110.225 16.9007 109.987 16.3974 109.987 15.7352C109.987 15.0729 110.225 14.5696 110.729 14.2252C111.232 13.8809 111.921 13.616 112.795 13.457L114.49 13.1391C114.94 13.0332 115.285 12.9537 115.55 12.8478C115.788 12.7418 115.974 12.6623 116.106 12.5299V14.3047V14.3577Z" fill="#B1C2BE"/>
<path d="M127.338 0.450195H124.106V3.70848H127.338V0.450195Z" fill="#B1C2BE"/>
<path d="M127.258 17.2715V6.01318H126.172H124.477H121.908V8.29133H124.477V17.2715H121.325V19.5231H124.477H127.258H129.96V17.2715H127.258Z" fill="#B1C2BE"/>
<path d="M75.5768 12.9272H73.9079L73.696 12.6623L80.3979 6.01325H76.8483L72.5304 10.4901C72.1595 10.8344 71.8152 11.2053 71.4973 11.6027V0H68.7158V19.5232H71.4973V14.8609L72.7423 13.6424L77.3781 19.5232H81.0602L75.6032 12.9272H75.5768Z" fill="#B1C2BE"/>
<path d="M19.5762 0.132567L10.9404 8.76833C10.649 9.05972 10.1722 8.8478 10.1722 8.45045V0.450447C10.1722 0.0530959 9.69537 -0.132334 9.40398 0.132567L0.13245 9.40409C0.0529801 9.48356 0 9.58952 0 9.72197V19.2319C0 19.4703 0.21194 19.6822 0.450351 19.6822H9.96026C10.0662 19.6822 10.1987 19.6293 10.2782 19.5498L20.1589 9.66899C20.2384 9.58952 20.2914 9.48356 20.2914 9.35111V0.450447C20.2914 0.0530959 19.8146 -0.132334 19.5232 0.132567H19.5762Z" fill="#9A59FF"/>
</svg>
